<html>
<head>
<meta charset="UTF-8">
<meta name="viewport" content="width=device-width, initial-scale=1.0"/>

<style>
.comment
{
    padding-left: 20px;
    margin-top: 4px;
    margin-right: 4px;
    margin-bottom: 4px;
    border: 2px #000 solid;
}
.submission
{
    border: 4px #00f solid;
    padding-left: 20px;
}
.hidden
{
    display: none;
}
</style>
</head>
<body><div class="submission" id="t3_6e4755">
    <p class="userinfo">
        <a href="https://www.reddit.com/u/V2atX">V2atX</a>
        <span class="score"> | 14 points</span>
        <span class="timestamp"> | May 30 2017 01:09:30</span>
    </p>
    <strong>[TV] The Flash (2014) S02 [1080p] BluRay FLAC [x264] [35.53GB]</strong>
    <p><p><a href="http://www.imdb.com/title/tt3107288/">The Flash</a></p>
<p>Video: AVC H.264 @ 3020 - 4694 kb/s (3738 kb/s average) (CRF20, Film Preset, Ultralight Denoise)<br>
Audio: FLAC 5.1 @ 1363 - 1559 kb/s (1464 kb/s average) (lossless from DTS-HD MA source)<br>
Subs: UTF-8, non HI</p>
<p>Link protected by captcha: http://links.snahp.it/728FlashS02</p>
<p>Complete MediaInfo of a relatively average sized episode:</p>
<pre><code>General
Unique ID                                : 254968256898360410789065822592794491691 (0xBFD1199F080B7D1994C53DA65129FB2B)
Complete name                            : The Flash (2014) - S02E15 - King Shark.mkv
Format                                   : Matroska
Format version                           : Version 4 / Version 2
File size                                : 1.56 GiB
Duration                                 : 42 min 29 s
Overall bit rate mode                    : Variable
Overall bit rate                         : 5 243 kb/s
Encoded date                             : UTC 2017-01-18 20:09:37
Writing application                      : mkvmerge v9.7.1 ('Pandemonium') 64bit
Writing library                          : libebml v1.3.4 + libmatroska v1.4.5

Video
ID                                       : 1
Format                                   : AVC
Format/Info                              : Advanced Video Codec
Format profile                           : High@L4.1
Format settings, CABAC                   : Yes
Format settings, ReFrames                : 4 frames
Codec ID                                 : V_MPEG4/ISO/AVC
Duration                                 : 42 min 29 s
Bit rate                                 : 3 803 kb/s
Width                                    : 1 920 pixels
Height                                   : 1 080 pixels
Display aspect ratio                     : 16:9
Frame rate mode                          : Constant
Frame rate                               : 23.976 FPS
Color space                              : YUV
Chroma subsampling                       : 4:2:0
Bit depth                                : 8 bits
Scan type                                : Progressive
Bits/(Pixel*Frame)                       : 0.076
Stream size                              : 1.13 GiB (73%)
Writing library                          : x264 core 142 r2479 dd79a61
Encoding settings                        : cabac=1 / ref=4 / deblock=1:-1:-1 / analyse=0x3:0x133 / me=umh / subme=10 / psy=1 / psy_rd=1.00:0.15 / mixed_ref=1 / me_range=24 / chroma_me=1 / trellis=2 / 8x8dct=1 / cqm=0 / deadzone=21,11 / fast_pskip=1 / chroma_qp_offset=-3 / threads=12 / lookahead_threads=2 / sliced_threads=0 / nr=0 / decimate=1 / interlaced=0 / bluray_compat=0 / constrained_intra=0 / bframes=8 / b_pyramid=2 / b_adapt=2 / b_bias=0 / direct=3 / weightb=1 / open_gop=0 / weightp=2 / keyint=240 / keyint_min=24 / scenecut=40 / intra_refresh=0 / rc_lookahead=60 / rc=crf / mbtree=1 / crf=20.0 / qcomp=0.60 / qpmin=0 / qpmax=69 / qpstep=4 / vbv_maxrate=62500 / vbv_bufsize=78125 / crf_max=0.0 / nal_hrd=none / filler=0 / ip_ratio=1.40 / aq=1:1.00
Default                                  : Yes
Forced                                   : No
Color range                              : Limited
Color primaries                          : BT.709
Transfer characteristics                 : BT.709
Matrix coefficients                      : BT.709

Audio
ID                                       : 2
Format                                   : FLAC
Format/Info                              : Free Lossless Audio Codec
Codec ID                                 : A_FLAC
Duration                                 : 42 min 29 s
Bit rate mode                            : Variable
Bit rate                                 : 1 438 kb/s
Channel(s)                               : 6 channels
Channel positions                        : Front: L C R, Side: L R, LFE
Sampling rate                            : 48.0 kHz
Frame rate                               : 11.719 FPS (4096 spf)
Bit depth                                : 16 bits
Delay relative to video                  : -83 ms
Stream size                              : 437 MiB (27%)
Writing library                          : libFLAC 1.2.1 (UTC 2007-09-17)
Language                                 : English
Default                                  : Yes
Forced                                   : No

Text
ID                                       : 3
Format                                   : UTF-8
Codec ID                                 : S_TEXT/UTF8
Codec ID/Info                            : UTF-8 Plain Text
Duration                                 : 41 min 51 s
Bit rate                                 : 82 b/s
Count of elements                        : 713
Stream size                              : 25.3 KiB (0%)
Language                                 : English
Default                                  : Yes
Forced                                   : No

Menu
00:00:00.000                             : :Chapter 1
00:01:08.835                             : :Chapter 2
00:02:34.254                             : :Chapter 3
00:10:20.386                             : :Chapter 4
00:16:12.738                             : :Chapter 5
00:22:57.476                             : :Chapter 6
00:28:38.150                             : :Chapter 7
00:35:02.534                             : :Chapter 8
00:42:01.285                             : :Chapter 9
</code></pre></p>
    <p class="toolbar">
        <a href="https://www.reddit.com/r/megalinks/comments/6e4755">permalink</a>
    </p>
</div>
<div class="comment" id="t1_di7hnhd">
    <p class="userinfo">
        <a
        class="toggle_hide_button"
        href="javascript:void(0)"
        onclick="toggle_collapse(this.parentElement.parentElement)">[-]
        </a>
        <a href="https://www.reddit.com/u/n0197exe">n0197exe</a>
        <span class="score"> | 4 points</span>
        <span class="timestamp"> | May 30 2017 01:12:00</span>
    </p>
    <div class="collapsible">
        <p>Thank you very much.</p>
        <p class="toolbar">
            <a href="https://www.reddit.com/r/megalinks/comments/6e4755/_/di7hnhd">permalink</a>
        </p>
        <div class="comment" id="t1_di7r8kg">
    <p class="userinfo">
        <a
        class="toggle_hide_button"
        href="javascript:void(0)"
        onclick="toggle_collapse(this.parentElement.parentElement)">[-]
        </a>
        <a href="https://www.reddit.com/u/ForceBlade">ForceBlade</a>
        <span class="score"> | 1 points</span>
        <span class="timestamp"> | May 30 2017 05:12:12</span>
    </p>
    <div class="collapsible">
        <p>Truly all I can say to these good posts</p>
        <p class="toolbar">
            <a href="https://www.reddit.com/r/megalinks/comments/6e4755/_/di7r8kg">permalink</a>
        </p>
        
    </div>
</div>
    </div>
</div>

<div class="comment" id="t1_di8r1st">
    <p class="userinfo">
        <a
        class="toggle_hide_button"
        href="javascript:void(0)"
        onclick="toggle_collapse(this.parentElement.parentElement)">[-]
        </a>
        <a href="https://www.reddit.com/u/Jalohann">Jalohann</a>
        <span class="score"> | 2 points</span>
        <span class="timestamp"> | May 30 2017 20:51:25</span>
    </p>
    <div class="collapsible">
        <p>Omg why are people so nice THANKS</p>
        <p class="toolbar">
            <a href="https://www.reddit.com/r/megalinks/comments/6e4755/_/di8r1st">permalink</a>
        </p>
        
    </div>
</div>
</body>

<script>
function toggle_collapse(comment_div)
{
    var button = comment_div.getElementsByClassName("toggle_hide_button")[0];
    var collapsible = comment_div.getElementsByClassName("collapsible")[0];
    if (collapsible.classList.contains("hidden"))
    {
        collapsible.classList.remove("hidden");
        button.innerText = "[-]";
    }
    else
    {
        collapsible.classList.add("hidden");
        button.innerText = "[+]";
    }
}
</script>
</html>
